{
    "asset" : {
        "generator" : "Khronos glTF Blender I/O v1.4.40",
        "version" : "2.0"
    },
    "scene" : 0,
    "scenes" : [
        {
            "name" : "Scene",
            "nodes" : [
                0,
                1
            ]
        }
    ],
    "nodes" : [
        {
            "mesh" : 0,
            "name" : "Flower_01",
            "scale" : [
                0.009726106189191341,
                0.009726106189191341,
                0.009726106189191341
            ]
        },
        {
            "mesh" : 1,
            "name" : "group1926919455",
            "rotation" : [
                0.7071068286895752,
                0,
                0,
                0.7071067094802856
            ],
            "scale" : [
                3.622519016265869,
                3.622519016265869,
                3.622519016265869
            ]
        }
    ],
    "materials" : [
        {
            "name" : "blinn6SG",
            "pbrMetallicRoughness" : {
                "metallicFactor" : 0
            }
        },
        {
            "name" : "blinn9SG",
            "pbrMetallicRoughness" : {
                "baseColorFactor" : [
                    0.07000000029802322,
                    0.4300000071525574,
                    0.07999999821186066,
                    1
                ],
                "metallicFactor" : 0
            }
        },
        {
            "name" : "blinn2SG",
            "pbrMetallicRoughness" : {
                "baseColorFactor" : [
                    1,
                    0.8299999833106995,
                    0.03999999910593033,
                    1
                ],
                "metallicFactor" : 0
            }
        },
        {
            "doubleSided" : true,
            "name" : "mat20",
            "pbrMetallicRoughness" : {
                "baseColorFactor" : [
                    0.4699999988079071,
                    0.33000001311302185,
                    0.2800000011920929,
                    1
                ],
                "metallicFactor" : 0
            }
        },
        {
            "doubleSided" : true,
            "name" : "mat9",
            "pbrMetallicRoughness" : {
                "baseColorFactor" : [
                    0.550000011920929,
                    0.7599999904632568,
                    0.28999999165534973,
                    1
                ],
                "metallicFactor" : 0
            }
        }
    ],
    "meshes" : [
        {
            "name" : "Flower_01",
            "primitives" : [
                {
                    "attributes" : {
                        "POSITION" : 0,
                        "NORMAL" : 1,
                        "TEXCOORD_0" : 2
                    },
                    "indices" : 3,
                    "material" : 0
                },
                {
                    "attributes" : {
                        "POSITION" : 4,
                        "NORMAL" : 5,
                        "TEXCOORD_0" : 6
                    },
                    "indices" : 7,
                    "material" : 1
                },
                {
                    "attributes" : {
                        "POSITION" : 8,
                        "NORMAL" : 9,
                        "TEXCOORD_0" : 10
                    },
                    "indices" : 11,
                    "material" : 2
                }
            ]
        },
        {
            "name" : "group1926919455",
            "primitives" : [
                {
                    "attributes" : {
                        "POSITION" : 12,
                        "NORMAL" : 13,
                        "TEXCOORD_0" : 14
                    },
                    "indices" : 15,
                    "material" : 3
                },
                {
                    "attributes" : {
                        "POSITION" : 16,
                        "NORMAL" : 17,
                        "TEXCOORD_0" : 18
                    },
                    "indices" : 19,
                    "material" : 4
                }
            ]
        }
    ],
    "accessors" : [
        {
            "bufferView" : 0,
            "componentType" : 5126,
            "count" : 279,
            "max" : [
                63.16543960571289,
                264.99334716796875,
                -4.578237533569336
            ],
            "min" : [
                -63.16543960571289,
                138.6625518798828,
                -10.009389877319336
            ],
            "type" : "VEC3"
        },
        {
            "bufferView" : 1,
            "componentType" : 5126,
            "count" : 279,
            "type" : "VEC3"
        },
        {
            "bufferView" : 2,
            "componentType" : 5126,
            "count" : 279,
            "type" : "VEC2"
        },
        {
            "bufferView" : 3,
            "componentType" : 5123,
            "count" : 624,
            "type" : "SCALAR"
        },
        {
            "bufferView" : 4,
            "componentType" : 5126,
            "count" : 89,
            "max" : [
                24.057628631591797,
                225.8855743408203,
                3.4195938110351562
            ],
            "min" : [
                -24.057628631591797,
                0.28309500217437744,
                -4.578237533569336
            ],
            "type" : "VEC3"
        },
        {
            "bufferView" : 5,
            "componentType" : 5126,
            "count" : 89,
            "type" : "VEC3"
        },
        {
            "bufferView" : 6,
            "componentType" : 5126,
            "count" : 89,
            "type" : "VEC2"
        },
        {
            "bufferView" : 7,
            "componentType" : 5123,
            "count" : 180,
            "type" : "SCALAR"
        },
        {
            "bufferView" : 8,
            "componentType" : 5126,
            "count" : 73,
            "max" : [
                24.057628631591797,
                225.8855743408203,
                -10.009389877319336
            ],
            "min" : [
                -24.057628631591797,
                177.7703399658203,
                -16.138835906982422
            ],
            "type" : "VEC3"
        },
        {
            "bufferView" : 9,
            "componentType" : 5126,
            "count" : 73,
            "type" : "VEC3"
        },
        {
            "bufferView" : 10,
            "componentType" : 5126,
            "count" : 73,
            "type" : "VEC2"
        },
        {
            "bufferView" : 11,
            "componentType" : 5123,
            "count" : 120,
            "type" : "SCALAR"
        },
        {
            "bufferView" : 12,
            "componentType" : 5126,
            "count" : 88,
            "max" : [
                0.43500009179115295,
                0.4350002110004425,
                1.4692156314849854
            ],
            "min" : [
                -0.43500009179115295,
                -0.4349999725818634,
                0.026568830013275146
            ],
            "type" : "VEC3"
        },
        {
            "bufferView" : 13,
            "componentType" : 5126,
            "count" : 88,
            "type" : "VEC3"
        },
        {
            "bufferView" : 14,
            "componentType" : 5126,
            "count" : 88,
            "type" : "VEC2"
        },
        {
            "bufferView" : 15,
            "componentType" : 5123,
            "count" : 90,
            "type" : "SCALAR"
        },
        {
            "bufferView" : 16,
            "componentType" : 5126,
            "count" : 30,
            "max" : [
                0.43500009179115295,
                0.4350002110004425,
                0.026568949222564697
            ],
            "min" : [
                -0.43500009179115295,
                -0.4349999725818634,
                -0.0032575130462646484
            ],
            "type" : "VEC3"
        },
        {
            "bufferView" : 17,
            "componentType" : 5126,
            "count" : 30,
            "type" : "VEC3"
        },
        {
            "bufferView" : 18,
            "componentType" : 5126,
            "count" : 30,
            "type" : "VEC2"
        },
        {
            "bufferView" : 19,
            "componentType" : 5123,
            "count" : 30,
            "type" : "SCALAR"
        }
    ],
    "bufferViews" : [
        {
            "buffer" : 0,
            "byteLength" : 3348,
            "byteOffset" : 0
        },
        {
            "buffer" : 0,
            "byteLength" : 3348,
            "byteOffset" : 3348
        },
        {
            "buffer" : 0,
            "byteLength" : 2232,
            "byteOffset" : 6696
        },
        {
            "buffer" : 0,
            "byteLength" : 1248,
            "byteOffset" : 8928
        },
        {
            "buffer" : 0,
            "byteLength" : 1068,
            "byteOffset" : 10176
        },
        {
            "buffer" : 0,
            "byteLength" : 1068,
            "byteOffset" : 11244
        },
        {
            "buffer" : 0,
            "byteLength" : 712,
            "byteOffset" : 12312
        },
        {
            "buffer" : 0,
            "byteLength" : 360,
            "byteOffset" : 13024
        },
        {
            "buffer" : 0,
            "byteLength" : 876,
            "byteOffset" : 13384
        },
        {
            "buffer" : 0,
            "byteLength" : 876,
            "byteOffset" : 14260
        },
        {
            "buffer" : 0,
            "byteLength" : 584,
            "byteOffset" : 15136
        },
        {
            "buffer" : 0,
            "byteLength" : 240,
            "byteOffset" : 15720
        },
        {
            "buffer" : 0,
            "byteLength" : 1056,
            "byteOffset" : 15960
        },
        {
            "buffer" : 0,
            "byteLength" : 1056,
            "byteOffset" : 17016
        },
        {
            "buffer" : 0,
            "byteLength" : 704,
            "byteOffset" : 18072
        },
        {
            "buffer" : 0,
            "byteLength" : 180,
            "byteOffset" : 18776
        },
        {
            "buffer" : 0,
            "byteLength" : 360,
            "byteOffset" : 18956
        },
        {
            "buffer" : 0,
            "byteLength" : 360,
            "byteOffset" : 19316
        },
        {
            "buffer" : 0,
            "byteLength" : 240,
            "byteOffset" : 19676
        },
        {
            "buffer" : 0,
            "byteLength" : 60,
            "byteOffset" : 19916
        }
    ],
    "buffers" : [
        {
            "byteLength" : 19976,
            "uri" : "flower.bin"
        }
    ]
}
